HIERARCHY
ROOT Hips
{
	OFFSET 0.000000 0.000000 0.000000 
	CHANNELS 6 Xposition Yposition Zposition Yrotation Zrotation Xrotation 
	JOINT Lumbar
	{
		OFFSET 0.000000 0.000000 0.000000 
		CHANNELS 3 Zrotation Xrotation Yrotation
		JOINT Neck
		{
			OFFSET 0.000000 0.445665 0.000000 
			CHANNELS 3 Zrotation Xrotation Yrotation
			End Site
			{
				OFFSET 0.000000 0.227535 0.000000 
			}
		}
		JOINT RightShoulder
		{
			OFFSET 0.019635 0.377685 0.194865 
			CHANNELS 3 Zrotation Xrotation Yrotation
			JOINT RightElbow
			{
				OFFSET 0.000000 -0.243375 0.000000 
				CHANNELS 2 Zrotation Yrotation
				JOINT RightWrist
				{
					OFFSET 0.000000 -0.264825 0.000000 
					CHANNELS 2 Zrotation Xrotation
					End Site
					{
						OFFSET 0.006600 -0.176220 0.000990 
					}
				}
			}
		}
		JOINT LeftShoulder
		{
			OFFSET 0.019635 0.377685 -0.194865 
			CHANNELS 3 Zrotation Xrotation Yrotation
			JOINT LeftElbow
			{
				OFFSET 0.000000 -0.243375 0.000000 
				CHANNELS 2 Zrotation Yrotation
				JOINT LeftWrist
				{
					OFFSET 0.000000 -0.264825 0.000000 
					CHANNELS 2 Zrotation Xrotation
					End Site
					{
						OFFSET 0.006600 -0.176220 -0.000990 
					}
				}
			}
		}
	}
	JOINT RightHip
	{
		OFFSET 0.052140 -0.069960 0.075570 
		CHANNELS 3 Zrotation Xrotation Yrotation
		JOINT RightKnee
		{
			OFFSET 0.000000 -0.402270 0.000000 
			CHANNELS 1 Zrotation
			JOINT RightAnkle
			{
				OFFSET 0.000000 -0.404085 0.000000 
				CHANNELS 3 Zrotation Xrotation Yrotation
				End Site
				{
					OFFSET 0.204105 -0.089430 0.008415 
				}
			}
		}
	}
	JOINT LeftHip
	{
		OFFSET 0.052140 -0.069960 -0.075570 
		CHANNELS 3 Zrotation Xrotation Yrotation
		JOINT LeftKnee
		{
			OFFSET 0.000000 -0.402270 0.000000 
			CHANNELS 1 Zrotation
			JOINT LeftAnkle
			{
				OFFSET 0.000000 -0.404085 0.000000 
				CHANNELS 3 Zrotation Xrotation Yrotation
				End Site
				{
					OFFSET 0.204105 -0.089430 -0.008415 
				}
			}
		}
	}
}
MOTION
Frames: 28
Frame Time: 0.02
-0.00321 0.00016 0.0017 178.40282 -45.61321 -1.24565 58.17485 1.541 -0.93384 -9.17557 -4.97614 -0.06553 170.37738 -73.15945 -44.53784 13.85492 87.38684 -1.18301 -8.85165 161.68789 73.21189 71.53173 10.75333 -68.85485 1.33204 9.66624 48.39911 -2.9281 -8.24198 -19.15898 -7.59803 -4.58276 -3.11785 52.83222 6.73661 -0.31464 -24.37389 -11.42195 5.99166 4.13471
-0.00201 0.00021 0.00138 178.42397 -45.59008 -1.24358 58.04242 1.51554 -0.91201 -9.39139 -4.96372 -0.07767 169.58944 -73.34587 -45.22068 13.9204 87.15248 -1.13447 -8.82775 161.09885 73.21816 72.16219 10.74565 -68.84198 1.35961 9.6383 48.48022 -2.86012 -7.98392 -19.19929 -7.63067 -4.60954 -3.13658 52.89471 6.83224 0.0261 -24.3777 -11.38442 5.97232 4.12222
-0.0008 0.00027 0.00105 178.44506 -45.5669 -1.24151 57.90996 1.49009 -0.89018 -9.60707 -4.95136 -0.0898 168.80156 -73.53232 -45.90391 13.98568 86.91859 -1.08594 -8.80372 160.51017 73.22475 72.79224 10.7379 -68.83095 1.38678 9.61027 48.5612 -2.79224 -7.72637 -19.23957 -7.66325 -4.63627 -3.15528 52.95708 6.92767 0.36594 -24.38151 -11.34702 5.95303 4.10975
0.0004 0.00032 0.00073 178.46614 -45.54382 -1.23945 57.77788 1.46469 -0.86841 -9.82231 -4.93898 -0.10191 168.01584 -73.71827 -46.5849 14.05095 86.6849 -1.03752 -8.77985 159.92284 73.23107 73.42099 10.73024 -68.81848 1.41422 9.58239 48.64208 -2.72444 -7.469 -19.27976 -7.69579 -4.66298 -3.17396 53.01937 7.02302 0.70568 -24.38531 -11.3096 5.93374 4.09729
0.0016 0.00037 0.0004 178.4873 -45.52083 -1.23739 57.64594 1.4393 -0.84667 -10.03746 -4.92653 -0.11402 167.23047 -73.90395 -47.26501 14.11647 86.45086 -0.98915 -8.75624 159.33535 73.23694 74.04964 10.72268 -68.80331 1.44216 9.55468 48.72305 -2.6566 -7.21141 -19.31995 -7.72836 -4.6897 -3.19266 53.08179 7.11853 1.04619 -24.38911 -11.27208 5.91442 4.0848
0.00281 0.00042 8e-05 178.50825 -45.49726 -1.2353 57.51236 1.41374 -0.82466 -10.25422 -4.91434 -0.12619 166.43709 -74.09198 -47.955 14.18124 86.21731 -0.9403 -8.73134 158.74401 73.24502 74.68259 10.71452 -68.80087 1.46771 9.526 48.80406 -2.58868 -6.95407 -19.3604 -7.76095 -4.71644 -3.21133 53.14408 7.21378 1.38455 -24.39294 -11.23492 5.89519 4.07238
0.004 0.00047 -0.00024 178.52957 -45.4749 -1.23327 57.38236 1.38856 -0.80323 -10.46757 -4.90165 -0.13822 165.66198 -74.27512 -48.62317 14.24736 85.98298 -0.89245 -8.70897 158.16203 73.2487 75.30607 10.70761 -68.77334 1.49808 9.49927 48.88486 -2.52091 -6.69603 -19.40028 -7.7935 -4.74317 -3.23008 53.20647 7.30947 1.72704 -24.39671 -11.19705 5.8758 4.05983
0.00521 0.00053 -0.00057 178.55057 -45.45141 -1.23121 57.24882 1.363 -0.78123 -10.68396 -4.88941 -0.1504 164.86767 -74.46268 -49.3136 14.31242 85.74947 -0.84369 -8.68442 157.56964 73.25633 75.93851 10.69947 -68.76799 1.52392 9.47078 48.96594 -2.45314 -6.43952 -19.44072 -7.82602 -4.76981 -3.2487 53.2689 7.40472 2.06543 -24.40055 -11.15989 5.85656 4.04741
0.00644 0.00058 -0.0009 178.57115 -45.42652 -1.22902 57.11178 1.33706 -0.75863 -10.90468 -4.87775 -0.16271 164.0585 -74.6562 -50.02348 14.37544 85.51643 -0.79372 -8.65653 156.97109 73.26929 76.58154 10.69012 -68.79387 1.54453 9.43994 49.04708 -2.38479 -6.18122 -19.48174 -7.85881 -4.79674 -3.26739 53.33091 7.49962 2.40011 -24.40441 -11.12333 5.83747 4.0351
0.00754 0.00064 -0.00119 178.59405 -45.40962 -1.2273 56.99734 1.31355 -0.7398 -11.10232 -4.86287 -0.17408 163.36062 -74.81712 -50.5982 14.44797 85.27907 -0.75042 -8.64586 156.42765 73.25308 77.16261 10.6886 -68.65246 1.59612 9.42205 49.127 -2.31803 -5.92222 -19.51909 -7.89096 -4.8232 -3.28634 53.39395 7.59708 2.76005 -24.40793 -11.08251 5.81741 4.02202
0.00893 0.00067 -0.00157 178.61209 -45.37594 -1.22473 56.83368 1.28478 -0.7128 -11.34741 -4.85471 -0.18756 162.4118 -75.04564 -51.47263 14.50186 85.05187 -0.69326 -8.60015 155.7556 73.29742 77.87483 10.67003 -68.8559 1.58182 9.37721 49.21007 -2.24905 -5.67178 -19.56437 -7.92387 -4.8499 -3.30432 53.45566 7.68877 3.06417 -24.41231 -11.05123 5.79948 4.01066
0.01102 0.00064 -0.00219 178.61648 -45.29519 -1.21874 56.54596 1.24248 -0.66498 -11.73426 -4.86564 -0.20603 160.89474 -75.47035 -53.05425 14.4911 84.84372 -0.59936 -8.44694 154.82617 73.51658 78.9459 10.60827 -70.08225 1.38879 9.25491 49.29739 -2.16414 -5.38469 -19.6302 -7.96398 -4.88342 -3.32332 53.50704 7.76766 3.23471 -24.41788 -11.04176 5.78658 4.00327
0.01342 0.00057 -0.00289 178.61613 -45.19783 -1.21211 56.20663 1.19474 -0.60872 -12.16648 -4.88317 -0.22675 159.10059 -75.96011 -54.95449 14.46317 84.64703 -0.49375 -8.26091 153.74893 73.79399 80.14759 10.52854 -71.64069 1.12898 9.10643 49.38887 -2.07857 -5.11598 -19.70423 -8.00405 -4.91617 -3.34076 53.55847 7.84023 3.34569 -24.42449 -11.04264 5.77594 3.99772
0.01572 0.00052 -0.00355 178.61798 -45.10868 -1.20645 55.88391 1.14887 -0.55515 -12.57059 -4.89728 -0.24701 157.35811 -76.41425 -56.78899 14.45316 84.45131 -0.38951 -8.09695 152.67808 74.04029 81.2918 10.45491 -72.99716 0.89863 8.97193 49.48107 -2.00007 -4.87989 -19.77527 -8.04062 -4.94504 -3.35639 53.61404 7.91364 3.47101 -24.43141 -11.04165 5.76481 3.99181
0.01784 0.00047 -0.0042 178.61918 -45.01649 -1.19783 55.59056 1.10548 -0.50606 -13.00705 -4.91329 -0.26503 155.93985 -76.89767 -58.30575 14.40438 84.23106 -0.29181 -7.90161 151.8673 74.31021 82.4336 10.39071 -74.56987 0.67276 8.82763 49.56147 -1.89407 -4.47652 -19.84315 -8.09149 -4.99115 -3.38229 53.65138 7.99542 3.64949 -24.43515 -11.02884 5.75148 3.98395
0.02042 0.00042 -0.0049 178.62119 -44.92698 -1.19533 55.22308 1.05573 -0.44608 -13.38612 -4.92676 -0.28811 153.76647 -77.33101 -60.54055 14.42731 84.06271 -0.19039 -7.76523 150.47509 74.53984 83.60481 10.30166 -75.77086 0.42066 8.69873 49.6684 -1.84385 -4.41885 -19.91964 -8.11328 -5.00193 -3.3869 53.72754 8.05848 3.7037 -24.44563 -11.04294 5.74319 3.98053
0.02415 0.00038 -0.00574 178.62176 -44.84673 -1.20888 54.66984 0.98892 -0.35422 -13.6019 -4.93307 -0.32565 149.70523 -77.64757 -64.84406 14.69504 84.05148 0.03158 -7.78713 147.55664 74.68462 84.87867 10.15642 -75.86277 0.12272 8.60756 49.83988 -1.95944 -5.37171 -20.01717 -8.04845 -4.90874 -3.329 53.90381 8.06996 3.42609 -24.47537 -11.1301 5.74898 3.98941
0.02835 0.00034 -0.00663 178.62424 -44.7703 -1.22873 54.04261 0.91606 -0.25234 -13.75722 -4.93641 -0.368 144.87543 -77.90378 -69.82798 15.02754 84.08921 0.23905 -7.87123 144.05221 74.77863 86.16611 9.98521 -75.56925 -0.20062 8.53407 50.03961 -2.12907 -6.6604 -20.12332 -7.95554 -4.78123 -3.25048 54.12061 8.06324 3.02716 -24.51164 -11.24362 5.7596 4.00258
0.03237 0.0003 -0.00749 178.62905 -44.69342 -1.24643 53.44516 0.84651 -0.15772 -13.93598 -4.94002 -0.40746 140.30512 -78.16396 -74.39344 15.30248 84.09333 0.37481 -7.93591 140.78524 74.86997 87.41417 9.82074 -75.45303 -0.51976 8.46087 50.23108 -2.26627 -7.75586 -20.22585 -7.8796 -4.67373 -3.18408 54.32328 8.0656 2.68456 -24.5444 -11.34439 5.76764 4.01351
0.03625 0.00027 -0.00836 178.62019 -44.60999 -1.2614 52.86221 0.77437 -0.05174 -14.1331 -4.948 -0.44996 136.07988 -78.52832 -79.43332 15.69569 84.14487 0.82808 -7.96468 137.62645 75.0745 88.81313 9.67735 -75.33951 -0.81262 8.35497 50.40225 -2.43643 -9.024 -20.32696 -7.78585 -4.54758 -3.10601 54.50722 8.06371 2.33049 -24.57968 -11.44927 5.7776 4.02588
0.04055 0.00022 -0.00922 178.64033 -44.54199 -1.2832 52.23206 0.70631 0.03332 -14.2774 -4.94659 -0.48724 130.98751 -78.6569 -83.63989 15.85802 84.11029 0.63331 -8.08019 134.11565 75.02734 89.89163 9.48372 -75.12433 -1.16237 8.31754 50.62376 -2.55107 -10.01125 -20.43351 -7.72256 -4.45213 -3.04739 54.74057 8.06722 1.97771 -24.61102 -11.55107 5.78439 4.03606
0.04583 0.00014 -0.01005 178.73991 -44.51009 -1.32537 51.49078 0.65056 0.05421 -14.28719 -4.91586 -0.50907 123.42792 -78.179 -85.3968 15.36836 83.81576 -1.49272 -8.44735 129.68643 74.32438 90.10622 9.16194 -74.72325 -1.68907 8.49836 50.96547 -2.49691 -10.14725 -20.54838 -7.74994 -4.44996 -3.04736 55.09382 8.083 1.61066 -24.63188 -11.64371 5.78364 4.04081
0.05152 5e-05 -0.01086 178.86857 -44.49472 -1.37364 50.70456 0.59922 0.05449 -14.24639 -4.8766 -0.52544 115.07237 -77.45963 -86.28523 14.64418 83.43477 -4.24333 -8.89412 124.94081 73.36496 89.96476 8.79034 -74.23201 -2.2674 8.73965 51.35911 -2.38553 -9.98815 -20.66926 -7.80895 -4.47981 -3.06761 55.49664 8.10603 1.25745 -24.64818 -11.73133 5.7791 4.04291
0.05705 -3e-05 -0.01167 178.98422 -44.47549 -1.41715 49.93855 0.54625 0.06666 -14.23074 -4.84381 -0.54423 107.25353 -76.83143 -87.55981 14.02629 83.09988 -6.61279 -9.28746 120.39955 72.50458 90.00508 8.43816 -73.77926 -2.80408 8.93359 51.73672 -2.30172 -9.95917 -20.79035 -7.85373 -4.49499 -3.07873 55.8811 8.13065 0.93039 -24.66521 -11.81725 5.77463 4.04507
0.0625 -0.00011 -0.01252 179.09954 -44.44088 -1.46929 49.17108 0.49162 0.06816 -14.20366 -4.79963 -0.56349 98.66854 -76.28116 -88.90032 13.41096 82.73768 -9.39369 -9.75826 115.58157 71.71477 90.07606 8.09643 -73.32126 -3.41664 9.21902 52.0832 -2.21282 -9.95682 -20.8993 -7.89708 -4.50966 -3.08891 56.24933 8.13471 0.46544 -24.68808 -11.92042 5.77709 4.05212
0.06821 -0.00021 -0.01328 179.22182 -44.44227 -1.50481 48.39662 0.4414 0.0873 -14.18944 -4.77759 -0.58039 91.50086 -75.51002 -89.88088 12.73488 82.41155 -11.46559 -10.0827 111.27303 70.71978 89.85493 7.72426 -72.86091 -3.88539 9.31926 52.50668 -2.12069 -9.82699 -21.03491 -7.95109 -4.53322 -3.10594 56.66267 8.18267 0.28839 -24.6977 -11.98675 5.7644 4.04845
0.07448 -0.00034 -0.01381 179.36158 -44.53869 -1.49317 47.61744 0.40378 0.15614 -14.22063 -4.81539 -0.59215 88.44058 -74.20525 -90.10675 11.94099 82.20244 -11.43155 -10.01065 108.44685 69.20164 90.19289 7.25823 -72.39276 -3.92403 8.97339 53.12834 -2.02936 -9.39467 -21.24165 -8.02868 -4.5756 -3.13864 57.1881 8.3578 0.93949 -24.67114 -11.94702 5.70872 4.01441
0.08099 -0.00048 -0.01425 179.50641 -44.67097 -1.46462 46.83271 0.37024 0.244 -14.26717 -4.87634 -0.60166 86.83671 -72.68394 -89.9692 11.09694 82.03279 -10.66425 -9.78374 106.14717 67.48865 90.04625 6.76902 -71.93311 -3.81974 8.42778 53.82587 -1.93723 -8.84694 -21.47494 -8.11567 -4.62559 -3.1773 57.75724 8.57558 1.87355 -24.63147 -11.87126 5.63827 3.96991
